<svg width="13" height="9" viewBox="0 0 13 9" fill="none" xmlns="http://www.w3.org/2000/svg">
<path d="M8 4.75C8 5.14782 7.84196 5.52936 7.56066 5.81066C7.27936 6.09196 6.89782 6.25 6.5 6.25C6.10218 6.25 5.72064 6.09196 5.43934 5.81066C5.15804 5.52936 5 5.14782 5 4.75C5 4.35218 5.15804 3.97064 5.43934 3.68934C5.72064 3.40804 6.10218 3.25 6.5 3.25C6.89782 3.25 7.27936 3.40804 7.56066 3.68934C7.84196 3.97064 8 4.35218 8 4.75Z" stroke="white" stroke-width="1.04167" stroke-linecap="round" stroke-linejoin="round"/>
<path d="M1.5 4.75C2.3 2.7015 4.168 1.25 6.5 1.25C8.832 1.25 10.7 2.7015 11.5 4.75C10.7 6.7985 8.832 8.25 6.5 8.25C4.168 8.25 2.3 6.7985 1.5 4.75Z" stroke="white" stroke-width="1.04167" stroke-linecap="round" stroke-linejoin="round"/>
</svg>
