<?xml version="1.0" encoding="UTF-8"?>
<svg version="1.1" xmlns="http://www.w3.org/2000/svg" width="296" height="297">
<path d="M0 0 C4.29 0 8.58 0 13 0 C13 75.9 13 151.8 13 230 C21.91 230 30.82 230 40 230 C39.97905273 228.02161133 39.95810547 226.04322266 39.93652344 224.00488281 C39.87201371 217.46705845 39.82605709 210.92930944 39.79275131 204.39125443 C39.77187948 200.42732207 39.74357001 196.46373413 39.69824219 192.5 C39.65476881 188.67447273 39.63085985 184.84927666 39.62049103 181.02352142 C39.61310222 179.56424495 39.59867335 178.10498654 39.57707977 176.64585114 C39.54802376 174.601068 39.54404459 172.5576518 39.54589844 170.51269531 C39.53701599 169.34909485 39.52813354 168.18549438 39.51898193 166.9866333 C40.10462237 163.3504014 41.11202356 162.21429215 44 160 C48.28182762 158.57272413 52.38945436 158.77552231 56.875 158.75 C58.22271484 158.7190625 58.22271484 158.7190625 59.59765625 158.6875 C68.27063212 158.63625642 68.27063212 158.63625642 72 162 C73.94249721 165.87578461 74.24430743 169.04529559 74.22705078 173.35083008 C74.22689972 174.6117598 74.22674866 175.87268951 74.22659302 177.17182922 C74.21638136 178.53773152 74.2059494 179.90363219 74.1953125 181.26953125 C74.19157941 182.67485859 74.18873383 184.08018853 74.18673706 185.48551941 C74.17912389 189.17299668 74.15949553 192.86031482 74.1373291 196.54772949 C74.11682059 200.31500089 74.10772467 204.08229816 74.09765625 207.84960938 C74.07624723 215.23315364 74.04108422 222.61653419 74 230 C79.28 230 84.56 230 90 230 C89.99111755 228.73101868 89.98223511 227.46203735 89.9730835 226.15460205 C89.89206143 214.2063879 89.83206514 202.25822935 89.79275131 190.30980301 C89.77186031 184.1667055 89.74351455 178.02382943 89.69824219 171.88085938 C89.65483917 165.95457528 89.6308743 160.02850442 89.62049103 154.10207367 C89.61308975 151.83898307 89.5986371 149.57590438 89.57707977 147.31290436 C89.54812015 144.14747224 89.54404097 140.9829257 89.54589844 137.81738281 C89.53151733 136.87798859 89.51713623 135.93859436 89.50231934 134.97073364 C89.54279455 128.61278871 89.54279455 128.61278871 91.90338135 125.44891357 C96.64986237 122.16875541 101.18503088 122.74136856 106.8125 122.6875 C108.31006836 122.64399414 108.31006836 122.64399414 109.83789062 122.59960938 C117.20522127 122.53580171 117.20522127 122.53580171 121.13671875 124.83203125 C123.74730037 127.86950043 124.12510554 130.29088067 124.12025452 134.15715027 C124.12231651 135.42545937 124.12231651 135.42545937 124.12442017 136.71939087 C124.11902725 138.10582291 124.11902725 138.10582291 124.11352539 139.52026367 C124.11367142 140.49605881 124.11381744 141.47185394 124.1139679 142.47721863 C124.11327038 145.70749116 124.10548545 148.93770627 124.09765625 152.16796875 C124.0957915 154.40570545 124.09436787 156.64344256 124.09336853 158.88117981 C124.08954784 164.77486292 124.07972135 170.66852144 124.06866455 176.56219482 C124.05844081 182.57466296 124.05386884 188.58713506 124.04882812 194.59960938 C124.03809871 206.39975039 124.02102763 218.19987315 124 230 C129.28 230 134.56 230 140 230 C139.97905273 227.60274658 139.95810547 225.20549316 139.93652344 222.7355957 C139.87022789 214.81278475 139.82605441 206.88996151 139.79275131 198.9669466 C139.77188153 194.16344334 139.74357501 189.3602244 139.69824219 184.55688477 C139.6547627 179.92087703 139.63085831 175.28514267 139.62049103 170.64894676 C139.61310343 168.88069543 139.59867707 167.11245897 139.57707977 165.34432411 C139.54801727 162.86634684 139.5440451 160.38949739 139.54589844 157.91137695 C139.53151733 157.18129425 139.51713623 156.45121155 139.50231934 155.69900513 C139.53125196 152.12097789 139.92119561 150.1255113 141.84088135 147.06803894 C146.20085889 142.89198158 151.6871112 143.74514752 157.375 143.6875 C158.32117188 143.65849609 159.26734375 143.62949219 160.2421875 143.59960938 C164.63069907 143.55954572 167.26015109 143.56298597 171.1015625 145.83203125 C174.51910468 149.73478004 174.13778976 153.67980969 174.11352539 158.5925293 C174.11367142 159.36349945 174.11381744 160.1344696 174.1139679 160.92880249 C174.11327119 163.47730319 174.1054901 166.02573082 174.09765625 168.57421875 C174.09579121 170.34113017 174.09436771 172.1080421 174.09336853 173.87495422 C174.08955012 178.52578153 174.07972558 183.17657761 174.06866455 187.82739258 C174.05843591 192.57307513 174.05386779 197.31876273 174.04882812 202.06445312 C174.03810273 211.37631801 174.02051137 220.68815152 174 230 C179.28 230 184.56 230 190 230 C189.99000725 227.21662956 189.99000725 227.21662956 189.97981262 224.37702942 C189.91906121 206.91053918 189.87387588 189.44407028 189.84456348 171.97749805 C189.82909237 162.99724396 189.80799817 154.01706872 189.77368164 145.03686523 C189.74378678 137.21002722 189.72442678 129.38324631 189.71773452 121.55635279 C189.7138224 117.41177755 189.70462334 113.26736569 189.68280983 109.12284279 C189.66244327 105.22161884 189.65616651 101.32062554 189.66067696 97.41935349 C189.65985183 95.98787749 189.65388705 94.55639377 189.64238358 93.12496376 C189.62743869 91.16932893 189.63283844 89.21357027 189.63923645 87.25788879 C189.63647107 86.16372052 189.63370569 85.06955225 189.63085651 83.94222736 C190.05221455 80.58382825 191.0075401 78.71199051 193 76 C197.40632829 73.29220049 202.41841483 73.63272761 207.4375 73.625 C208.27087891 73.60050781 209.10425781 73.57601562 209.96289062 73.55078125 C215.60971744 73.52399788 218.6730073 74.31074156 223 78 C224.36472242 80.72944484 224.12280593 82.87849016 224.12025452 85.93508911 C224.12231651 87.83239777 224.12231651 87.83239777 224.12442017 89.76803589 C224.12088078 91.1775515 224.11724597 92.58706688 224.11352539 93.99658203 C224.11324344 95.47469074 224.1134014 96.95279958 224.1139679 98.4309082 C224.11425558 102.4513349 224.10836351 106.47173195 224.10139394 110.49215174 C224.0951556 114.69088244 224.09455622 118.88961377 224.09336853 123.08834839 C224.09025664 131.04271462 224.08204515 138.99706715 224.07201904 146.95142734 C224.06085351 156.00571312 224.05534634 165.05999953 224.05032361 174.11429048 C224.03986243 192.74286967 224.0215187 211.37143008 224 230 C233.24 230 242.48 230 252 230 C252.71463194 234.28779162 253.19816059 237.73954722 253 242 C252 243 252 243 250.25997013 243.1241985 C249.49483366 243.12381878 248.7296972 243.12343906 247.94137478 243.12304783 C246.62166468 243.1260344 246.62166468 243.1260344 245.27529377 243.12908131 C244.29768764 243.12616847 243.32008151 243.12325563 242.31285095 243.12025452 C240.76798652 243.12153615 240.76798652 243.12153615 239.19191271 243.12284368 C235.7124786 243.12450157 232.23309184 243.11897208 228.75366211 243.11352539 C226.27078757 243.11324356 223.78791294 243.11340117 221.30503845 243.1139679 C215.94498514 243.11419622 210.5849468 243.11134478 205.22489738 243.10573006 C197.47508204 243.09761728 189.72527258 243.09500007 181.97545344 243.09374207 C169.40314727 243.09155119 156.83084758 243.08489016 144.25854492 243.07543945 C132.04272493 243.06626624 119.82690671 243.05919643 107.61108398 243.05493164 C106.85094122 243.05466364 106.09079846 243.05439565 105.30762106 243.05411953 C99.36317145 243.05204021 93.4187218 243.05008325 87.47427213 243.04816496 C58.31617548 243.03872422 29.15809503 243.01860759 0 243 C0 162.81 0 82.62 0 0 Z M200 84 C200 132.18 200 180.36 200 230 C204.62 230 209.24 230 214 230 C214 181.82 214 133.64 214 84 C209.38 84 204.76 84 200 84 Z M100 133 C100 165.01 100 197.02 100 230 C104.62 230 109.24 230 114 230 C114 197.99 114 165.98 114 133 C109.38 133 104.76 133 100 133 Z M150 154 C150 179.08 150 204.16 150 230 C154.62 230 159.24 230 164 230 C164 204.92 164 179.84 164 154 C159.38 154 154.76 154 150 154 Z M49 169 C49 189.13 49 209.26 49 230 C53.95 230 58.9 230 64 230 C64 209.87 64 189.74 64 169 C59.05 169 54.1 169 49 169 Z " fill="#FEFEFE" transform="translate(28,37)"/>
<path d="M0 0 C5.28410649 2.75642784 8.08002087 6.76740637 9.9296875 12.31640625 C10.29794974 17.93240541 10.14524757 21.49306614 6.9296875 26.31640625 C2.28627178 30.75793433 -1.25245992 33.17065525 -7.6953125 33.50390625 C-11.0703125 33.31640625 -11.0703125 33.31640625 -14.0703125 32.31640625 C-14.35229492 32.90542725 -14.63427734 33.49444824 -14.92480469 34.10131836 C-15.96880359 36.12011674 -17.08859856 37.90482492 -18.3984375 39.7578125 C-18.8620166 40.41499268 -19.3255957 41.07217285 -19.80322266 41.74926758 C-20.3038623 42.45204834 -20.80450195 43.1548291 -21.3203125 43.87890625 C-21.84028809 44.61326904 -22.36026367 45.34763184 -22.89599609 46.10424805 C-27.6780437 52.82895829 -32.57720709 59.46657681 -37.52441406 66.07055664 C-38.08870117 66.82844482 -38.65298828 67.58633301 -39.234375 68.3671875 C-39.73404785 69.03403564 -40.2337207 69.70088379 -40.74853516 70.38793945 C-42.08459885 72.33724996 -43.2242697 74.10598627 -44.0703125 76.31640625 C-43.6165625 77.22390625 -43.1628125 78.13140625 -42.6953125 79.06640625 C-40.69844594 83.06013936 -40.44622295 85.93898943 -41.0703125 90.31640625 C-42.91950405 95.75520491 -46.44618088 99.0900235 -51.0703125 102.31640625 C-55.66093859 103.84661495 -60.44571388 104.25778275 -65.07421875 102.59765625 C-69.00995883 100.48952766 -71.82103571 98.14850745 -74.0703125 94.31640625 C-74.15597788 92.69152752 -74.23905724 91.06651149 -74.3203125 89.44140625 C-74.58312452 86.75199989 -74.58312452 86.75199989 -76.0703125 84.31640625 C-80.77559231 80.88396123 -86.51600435 78.88955897 -92.0703125 77.31640625 C-94.69630628 77.73864754 -95.99859315 78.26578083 -98.1953125 79.81640625 C-102.32565511 81.97136761 -106.42575362 82.61521703 -111.0703125 82.31640625 C-112.34495073 81.71248601 -113.61407483 81.09685474 -114.87890625 80.47265625 C-117.47698552 79.43024534 -118.51344554 79.0940787 -121.14575195 80.14501953 C-123.33340436 81.62586806 -125.31874953 83.21762673 -127.3203125 84.94140625 C-128.01382813 85.50214844 -128.70734375 86.06289062 -129.421875 86.640625 C-130.71657857 87.68978134 -132.00201199 88.75056568 -133.27441406 89.82666016 C-138.68683167 94.31640625 -138.68683167 94.31640625 -141.0703125 94.31640625 C-140.96332031 94.87328125 -140.85632813 95.43015625 -140.74609375 96.00390625 C-139.84033108 101.76962133 -139.92777339 106.26286363 -143.0703125 111.31640625 C-146.61539262 115.16248374 -149.9472469 117.98335205 -155.3046875 118.5546875 C-161.51677243 118.7379633 -165.1187669 118.17861181 -170.0703125 114.31640625 C-173.13970881 110.45158712 -174.97132519 106.26577167 -175.0703125 101.31640625 C-173.90223854 95.92603215 -172.14341578 91.16322601 -168.0703125 87.31640625 C-163.25071775 84.6792695 -159.5360802 83.74106228 -154.0703125 84.31640625 C-152.82537744 84.92671457 -151.58734675 85.55124837 -150.35546875 86.1875 C-147.75133807 87.19257151 -146.64512723 87.54482578 -144.02075195 86.50195312 C-141.86822732 85.03520927 -139.91414028 83.45908561 -137.9453125 81.75390625 C-136.58947911 80.64728795 -135.23272311 79.54179897 -133.875 78.4375 C-133.23506104 77.89673828 -132.59512207 77.35597656 -131.93579102 76.79882812 C-130.2130247 75.42981398 -128.49086974 74.34828359 -126.58984375 73.25 C-123.81924769 71.56994349 -123.81924769 71.56994349 -123.58984375 68.73046875 C-123.68652344 67.81007813 -123.78320312 66.8896875 -123.8828125 65.94140625 C-124.13105689 61.1547452 -123.94796959 58.34512617 -121.0703125 54.31640625 C-115.8278482 49.18578119 -112.193506 47.90238085 -104.96875 47.96875 C-99.42897361 48.63322453 -95.75869432 51.41016871 -92.1328125 55.50390625 C-90.55512614 59.68013486 -90.31995798 63.88304682 -90.0703125 68.31640625 C-89.40644531 68.41824219 -88.74257812 68.52007812 -88.05859375 68.625 C-84.27857923 69.4995916 -80.83760391 70.9024564 -77.2578125 72.37890625 C-76.56494141 72.66056641 -75.87207031 72.94222656 -75.15820312 73.23242188 C-73.46063626 73.92315598 -71.76524938 74.61924353 -70.0703125 75.31640625 C-70.0703125 74.65640625 -70.0703125 73.99640625 -70.0703125 73.31640625 C-65.30750273 70.49400046 -62.71445916 69.04928769 -57.1953125 69.87890625 C-54.61083065 70.10981781 -54.61083065 70.10981781 -52.0703125 69.31640625 C-48.56709563 65.98234783 -45.97400895 62.21239754 -43.31591797 58.18945312 C-41.72666983 55.79966251 -40.05146035 53.47890627 -38.36791992 51.1550293 C-37.12439412 49.42972635 -35.90642651 47.68805124 -34.6875 45.9453125 C-32.84078683 43.33520552 -30.90012566 40.83052219 -28.890625 38.34375 C-28.36847412 37.68165527 -27.84632324 37.01956055 -27.30834961 36.33740234 C-26.2963156 35.05909392 -25.26388621 33.79659807 -24.20922852 32.55322266 C-22.60142949 30.61014309 -22.60142949 30.61014309 -21.0703125 27.31640625 C-22.12930874 23.58834953 -22.12930874 23.58834953 -24.0703125 20.31640625 C-24.77394171 13.98374333 -23.69656152 9.59201369 -20.0703125 4.31640625 C-14.49000478 -0.99169134 -7.39928197 -2.44315914 0 0 Z M-8.0703125 14.31640625 C-8.0703125 15.63640625 -8.0703125 16.95640625 -8.0703125 18.31640625 C-7.0803125 17.98640625 -6.0903125 17.65640625 -5.0703125 17.31640625 C-5.4003125 16.32640625 -5.7303125 15.33640625 -6.0703125 14.31640625 C-6.7303125 14.31640625 -7.3903125 14.31640625 -8.0703125 14.31640625 Z M-109.0703125 63.31640625 C-108.7403125 64.63640625 -108.4103125 65.95640625 -108.0703125 67.31640625 C-107.4103125 66.98640625 -106.7503125 66.65640625 -106.0703125 66.31640625 C-106.0703125 65.32640625 -106.0703125 64.33640625 -106.0703125 63.31640625 C-107.0603125 63.31640625 -108.0503125 63.31640625 -109.0703125 63.31640625 Z M-59.0703125 84.31640625 C-59.0703125 85.63640625 -59.0703125 86.95640625 -59.0703125 88.31640625 C-58.0803125 87.98640625 -57.0903125 87.65640625 -56.0703125 87.31640625 C-57.0603125 86.32640625 -58.0503125 85.33640625 -59.0703125 84.31640625 Z M-158.0703125 99.31640625 C-158.4003125 100.63640625 -158.7303125 101.95640625 -159.0703125 103.31640625 C-158.0803125 103.31640625 -157.0903125 103.31640625 -156.0703125 103.31640625 C-156.0703125 101.99640625 -156.0703125 100.67640625 -156.0703125 99.31640625 C-156.7303125 99.31640625 -157.3903125 99.31640625 -158.0703125 99.31640625 Z " fill="#FDFEFD" transform="translate(242.0703125,54.68359375)"/>
<path d="M0 0 C1.65 0 3.3 0 5 0 C5.625 1.875 5.625 1.875 6 4 C5.34 4.66 4.68 5.32 4 6 C2.68 6 1.36 6 0 6 C-1.125 2.25 -1.125 2.25 0 0 Z " fill="#0C1812" transform="translate(228,12)"/>
<path d="M0 0 C1.32 0 2.64 0 4 0 C3.34 1.32 2.68 2.64 2 4 C1.01 3.67 0.02 3.34 -1 3 C-0.67 2.01 -0.34 1.02 0 0 Z " fill="#131429" transform="translate(3,12)"/>
<path d="M0 0 C1.32 0 2.64 0 4 0 C3.67 0.99 3.34 1.98 3 3 C2.01 3.33 1.02 3.66 0 4 C0 2.68 0 1.36 0 0 Z " fill="#3C4439" transform="translate(205,13)"/>
<path d="M0 0 C0.99 0.33 1.98 0.66 3 1 C2.67 1.99 2.34 2.98 2 4 C1.34 3.67 0.68 3.34 0 3 C0 2.01 0 1.02 0 0 Z " fill="#272B2A" transform="translate(5,239)"/>
<path d="M0 0 C0.99 0 1.98 0 3 0 C3 0.99 3 1.98 3 3 C2.01 3 1.02 3 0 3 C0 2.01 0 1.02 0 0 Z " fill="#3E3E3E" transform="translate(54,14)"/>
<path d="M0 0 C0.66 0 1.32 0 2 0 C2 0.99 2 1.98 2 3 C1.34 3 0.68 3 0 3 C0 2.01 0 1.02 0 0 Z " fill="#4C514F" transform="translate(280,240)"/>
<path d="M0 0 C0.99 0.495 0.99 0.495 2 1 C2 1.66 2 2.32 2 3 C1.34 3 0.68 3 0 3 C0 2.01 0 1.02 0 0 Z " fill="#444845" transform="translate(280,189)"/>
<path d="M0 0 C0.99 0.33 1.98 0.66 3 1 C2.01 1.33 1.02 1.66 0 2 C0 1.34 0 0.68 0 0 Z " fill="#3B3C3B" transform="translate(30,15)"/>
<path d="M0 0 C0.66 0.66 1.32 1.32 2 2 C1.01 2 0.02 2 -1 2 C-0.67 1.34 -0.34 0.68 0 0 Z " fill="#5D5D5D" transform="translate(80,14)"/>
<path d="M0 0 C0.66 0.66 1.32 1.32 2 2 C1.01 2.495 1.01 2.495 0 3 C0 2.01 0 1.02 0 0 Z " fill="#6B6B6B" transform="translate(5,214)"/>
<path d="M0 0 C0.66 0 1.32 0 2 0 C2 0.66 2 1.32 2 2 C1.34 2 0.68 2 0 2 C0 1.34 0 0.68 0 0 Z " fill="#606A63" transform="translate(280,115)"/>
<path d="M0 0 C0.66 0 1.32 0 2 0 C2 0.66 2 1.32 2 2 C1.34 2 0.68 2 0 2 C0 1.34 0 0.68 0 0 Z " fill="#444444" transform="translate(80,115)"/>
<path d="M0 0 C0.99 0.495 0.99 0.495 2 1 C1.01 1.495 1.01 1.495 0 2 C0 1.34 0 0.68 0 0 Z " fill="#8F8F8F" transform="translate(5,290)"/>
<path d="M0 0 C0.99 0.495 0.99 0.495 2 1 C1.01 1.495 1.01 1.495 0 2 C0 1.34 0 0.68 0 0 Z " fill="#B0B0B0" transform="translate(55,290)"/>
<path d="M0 0 C0.99 0.495 0.99 0.495 2 1 C1.01 1.495 1.01 1.495 0 2 C0 1.34 0 0.68 0 0 Z " fill="#9B9B9B" transform="translate(5,265)"/>
<path d="M0 0 C0.99 0.495 0.99 0.495 2 1 C1.01 1.495 1.01 1.495 0 2 C0 1.34 0 0.68 0 0 Z " fill="#626262" transform="translate(280,215)"/>
<path d="M0 0 C0.99 0.495 0.99 0.495 2 1 C1.01 1.495 1.01 1.495 0 2 C0 1.34 0 0.68 0 0 Z " fill="#C6C7C7" transform="translate(105,190)"/>
<path d="M0 0 C0.99 0.495 0.99 0.495 2 1 C1.01 1.495 1.01 1.495 0 2 C0 1.34 0 0.68 0 0 Z " fill="#6D6D6D" transform="translate(5,190)"/>
<path d="M0 0 C0.99 0.495 0.99 0.495 2 1 C1.01 1.495 1.01 1.495 0 2 C0 1.34 0 0.68 0 0 Z " fill="#737373" transform="translate(5,165)"/>
<path d="M0 0 C0.99 0.495 0.99 0.495 2 1 C1.01 1.495 1.01 1.495 0 2 C0 1.34 0 0.68 0 0 Z " fill="#5A5A5A" transform="translate(105,90)"/>
<path d="M0 0 C0.99 0.495 0.99 0.495 2 1 C1.01 1.495 1.01 1.495 0 2 C0 1.34 0 0.68 0 0 Z " fill="#A1A1A1" transform="translate(5,90)"/>
<path d="M0 0 C0.99 0.495 0.99 0.495 2 1 C1.01 1.495 1.01 1.495 0 2 C0 1.34 0 0.68 0 0 Z " fill="#727272" transform="translate(80,40)"/>
<path d="M0 0 C0.99 0.495 0.99 0.495 2 1 C1.01 1.495 1.01 1.495 0 2 C0 1.34 0 0.68 0 0 Z " fill="#6C6C6C" transform="translate(130,15)"/>
<path d="" fill="#CCCCCC" transform="translate(0,0)"/>
<path d="M0 0 C2 1 2 1 2 1 Z " fill="#C2C2C2" transform="translate(230,290)"/>
<path d="M0 0 C2 1 2 1 2 1 Z " fill="#E3E3E3" transform="translate(130,290)"/>
<path d="" fill="#E3E3E3" transform="translate(0,0)"/>
<path d="M0 0 C2 1 2 1 2 1 Z " fill="#FFFFFF" transform="translate(55,265)"/>
<path d="" fill="#707070" transform="translate(0,0)"/>
<path d="M0 0 C2 1 2 1 2 1 Z " fill="#979797" transform="translate(280,140)"/>
<path d="M0 0 C2 1 2 1 2 1 Z " fill="#737373" transform="translate(280,90)"/>
<path d="" fill="#F7F9F7" transform="translate(0,0)"/>
<path d="M0 0 C2 1 2 1 2 1 Z " fill="#6A6A6A" transform="translate(180,15)"/>
<path d="" fill="#AFAFAF" transform="translate(0,0)"/>
<path d="" fill="#CDCDCD" transform="translate(0,0)"/>
<path d="" fill="#F8F8F8" transform="translate(0,0)"/>
<path d="" fill="#F5F5F5" transform="translate(0,0)"/>
<path d="" fill="#B3B3B3" transform="translate(0,0)"/>
<path d="" fill="#FFFFFF" transform="translate(0,0)"/>
<path d="" fill="#D5D5D5" transform="translate(0,0)"/>
<path d="" fill="#BABABA" transform="translate(0,0)"/>
<path d="" fill="#9A9A9A" transform="translate(0,0)"/>
<path d="" fill="#919191" transform="translate(0,0)"/>
<path d="" fill="#D7D7D7" transform="translate(0,0)"/>
<path d="" fill="#EFEFEF" transform="translate(0,0)"/>
<path d="" fill="#FBFBFB" transform="translate(0,0)"/>
<path d="" fill="#EFEFEF" transform="translate(0,0)"/>
<path d="" fill="#B4B4B4" transform="translate(0,0)"/>
<path d="" fill="#DFDFDF" transform="translate(0,0)"/>
<path d="" fill="#FFFFFF" transform="translate(0,0)"/>
<path d="" fill="#FFFFFF" transform="translate(0,0)"/>
<path d="" fill="#A1A1A1" transform="translate(0,0)"/>
<path d="" fill="#EDEDED" transform="translate(0,0)"/>
<path d="" fill="#FFFFFF" transform="translate(0,0)"/>
<path d="" fill="#888888" transform="translate(0,0)"/>
<path d="" fill="#A4A4A4" transform="translate(0,0)"/>
<path d="" fill="#979797" transform="translate(0,0)"/>
<path d="" fill="#989898" transform="translate(0,0)"/>
<path d="" fill="#DADADA" transform="translate(0,0)"/>
<path d="" fill="#7C7C7C" transform="translate(0,0)"/>
<path d="" fill="#898989" transform="translate(0,0)"/>
<path d="" fill="#A0A0A0" transform="translate(0,0)"/>
<path d="" fill="#737373" transform="translate(0,0)"/>
<path d="" fill="#979797" transform="translate(0,0)"/>
<path d="" fill="#8A8A8A" transform="translate(0,0)"/>
<path d="" fill="#979797" transform="translate(0,0)"/>
<path d="" fill="#808080" transform="translate(0,0)"/>
<path d="" fill="#8F8F8F" transform="translate(0,0)"/>
<path d="" fill="#888888" transform="translate(0,0)"/>
<path d="" fill="#838383" transform="translate(0,0)"/>
<path d="" fill="#7B7B7B" transform="translate(0,0)"/>
<path d="" fill="#A5A5A5" transform="translate(0,0)"/>
<path d="" fill="#BDBDBD" transform="translate(0,0)"/>
<path d="" fill="#A4A4A4" transform="translate(0,0)"/>
<path d="" fill="#F8F8F8" transform="translate(0,0)"/>
<path d="" fill="#B7B7B7" transform="translate(0,0)"/>
<path d="" fill="#7D7D7D" transform="translate(0,0)"/>
<path d="" fill="#818181" transform="translate(0,0)"/>
<path d="" fill="#818181" transform="translate(0,0)"/>
<path d="" fill="#898989" transform="translate(0,0)"/>
<path d="" fill="#7E7E7E" transform="translate(0,0)"/>
<path d="" fill="#A3A3A3" transform="translate(0,0)"/>
<path d="" fill="#E4E4E4" transform="translate(0,0)"/>
<path d="" fill="#000000" transform="translate(0,0)"/>
<path d="" fill="#000000" transform="translate(0,0)"/>
<path d="" fill="#828282" transform="translate(0,0)"/>
<path d="" fill="#878787" transform="translate(0,0)"/>
<path d="" fill="#000000" transform="translate(0,0)"/>
</svg>
