<svg width="22" height="15" viewBox="0 0 22 15" fill="none" xmlns="http://www.w3.org/2000/svg">
<path d="M6.25 1.33333H21.25M6.25 7.16667H21.25M6.25 13H21.25M2.91667 1.33333C2.91667 1.79357 2.54357 2.16667 2.08333 2.16667C1.6231 2.16667 1.25 1.79357 1.25 1.33333C1.25 0.873096 1.6231 0.5 2.08333 0.5C2.54357 0.5 2.91667 0.873096 2.91667 1.33333ZM2.91667 7.16667C2.91667 7.6269 2.54357 8 2.08333 8C1.6231 8 1.25 7.6269 1.25 7.16667C1.25 6.70643 1.6231 6.33333 2.08333 6.33333C2.54357 6.33333 2.91667 6.70643 2.91667 7.16667ZM2.91667 13C2.91667 13.4602 2.54357 13.8333 2.08333 13.8333C1.6231 13.8333 1.25 13.4602 1.25 13C1.25 12.5398 1.6231 12.1667 2.08333 12.1667C2.54357 12.1667 2.91667 12.5398 2.91667 13Z" stroke="white" stroke-width="0.625" stroke-linecap="round" stroke-linejoin="round"/>
</svg>
